<mxfile host="app.diagrams.net" modified="2024-05-17T01:17:15.558Z" agent="Mozilla/5.0 (Macintosh; Intel Mac OS X 10_15_7) AppleWebKit/537.36 (KHTML, like Gecko) Chrome/124.0.0.0 Safari/537.36" etag="-y22GxNRxDrPrhH8TJOH" version="24.4.2" type="github">
  <diagram name="페이지-1" id="68j--ii99kryvkrACH99">
    <mxGraphModel dx="934" dy="541" grid="1" gridSize="10" guides="1" tooltips="1" connect="1" arrows="1" fold="1" page="1" pageScale="1" pageWidth="827" pageHeight="1169" math="0" shadow="0">
      <root>
        <mxCell id="0" />
        <mxCell id="1" parent="0" />
        <mxCell id="WN3FTsc3brGf4hN8PLjJ-45" value="" style="rounded=0;whiteSpace=wrap;html=1;" vertex="1" parent="1">
          <mxGeometry x="120" y="160" width="460" height="490" as="geometry" />
        </mxCell>
        <mxCell id="WN3FTsc3brGf4hN8PLjJ-44" value="" style="rounded=0;whiteSpace=wrap;html=1;" vertex="1" parent="1">
          <mxGeometry x="120" y="690" width="460" height="290" as="geometry" />
        </mxCell>
        <mxCell id="Ee1ppWPycikmYeckys_f-1" value="Actor" style="shape=umlActor;verticalLabelPosition=bottom;verticalAlign=top;html=1;outlineConnect=0;strokeWidth=2;" parent="1" vertex="1">
          <mxGeometry x="30" y="350" width="30" height="60" as="geometry" />
        </mxCell>
        <mxCell id="Ee1ppWPycikmYeckys_f-2" value="&lt;font style=&quot;font-size: 20px;&quot;&gt;수정&lt;/font&gt;" style="ellipse;whiteSpace=wrap;html=1;strokeWidth=2;" parent="1" vertex="1">
          <mxGeometry x="160" y="290" width="160" height="80" as="geometry" />
        </mxCell>
        <mxCell id="Ee1ppWPycikmYeckys_f-3" value="&lt;font style=&quot;font-size: 20px;&quot;&gt;생성&lt;/font&gt;" style="ellipse;whiteSpace=wrap;html=1;strokeWidth=2;" parent="1" vertex="1">
          <mxGeometry x="160" y="200" width="160" height="80" as="geometry" />
        </mxCell>
        <mxCell id="Ee1ppWPycikmYeckys_f-4" value="&lt;font style=&quot;font-size: 20px;&quot;&gt;선택조회&lt;/font&gt;" style="ellipse;whiteSpace=wrap;html=1;strokeWidth=2;" parent="1" vertex="1">
          <mxGeometry x="160" y="560" width="160" height="80" as="geometry" />
        </mxCell>
        <mxCell id="Ee1ppWPycikmYeckys_f-5" value="&lt;font style=&quot;font-size: 20px;&quot;&gt;삭제&lt;/font&gt;" style="ellipse;whiteSpace=wrap;html=1;strokeWidth=2;" parent="1" vertex="1">
          <mxGeometry x="160" y="380" width="160" height="80" as="geometry" />
        </mxCell>
        <mxCell id="Ee1ppWPycikmYeckys_f-17" value="" style="endArrow=classic;html=1;rounded=0;dashed=1;exitX=1;exitY=0.5;exitDx=0;exitDy=0;strokeWidth=2;entryX=0;entryY=0.5;entryDx=0;entryDy=0;" parent="1" source="Ee1ppWPycikmYeckys_f-3" target="Ee1ppWPycikmYeckys_f-18" edge="1">
          <mxGeometry width="50" height="50" relative="1" as="geometry">
            <mxPoint x="330" y="240" as="sourcePoint" />
            <mxPoint x="400" y="240" as="targetPoint" />
          </mxGeometry>
        </mxCell>
        <mxCell id="Ee1ppWPycikmYeckys_f-18" value="&lt;font style=&quot;font-size: 20px;&quot;&gt;생성시 시간등록&lt;/font&gt;" style="ellipse;whiteSpace=wrap;html=1;strokeWidth=2;" parent="1" vertex="1">
          <mxGeometry x="400" y="200" width="160" height="80" as="geometry" />
        </mxCell>
        <mxCell id="Ee1ppWPycikmYeckys_f-19" value="&lt;font style=&quot;font-size: 20px;&quot;&gt;없을 시 메세지&lt;/font&gt;" style="ellipse;whiteSpace=wrap;html=1;strokeWidth=2;" parent="1" vertex="1">
          <mxGeometry x="400" y="380" width="160" height="80" as="geometry" />
        </mxCell>
        <mxCell id="Ee1ppWPycikmYeckys_f-26" value="&lt;span style=&quot;background-color: initial;&quot;&gt;&lt;font style=&quot;font-size: 24px;&quot;&gt;service&lt;/font&gt;&lt;/span&gt;" style="text;html=1;align=left;verticalAlign=middle;whiteSpace=wrap;rounded=0;" parent="1" vertex="1">
          <mxGeometry x="15" y="20" width="60" height="30" as="geometry" />
        </mxCell>
        <mxCell id="Ee1ppWPycikmYeckys_f-31" value="" style="endArrow=none;html=1;rounded=0;strokeWidth=2;entryX=0;entryY=0.5;entryDx=0;entryDy=0;" parent="1" target="Ee1ppWPycikmYeckys_f-3" edge="1">
          <mxGeometry width="50" height="50" relative="1" as="geometry">
            <mxPoint x="80" y="240" as="sourcePoint" />
            <mxPoint x="149.9999999999999" y="239.50000000000003" as="targetPoint" />
          </mxGeometry>
        </mxCell>
        <mxCell id="Ee1ppWPycikmYeckys_f-32" value="" style="endArrow=none;html=1;rounded=0;strokeWidth=2;entryX=0;entryY=0.5;entryDx=0;entryDy=0;" parent="1" target="Ee1ppWPycikmYeckys_f-4" edge="1">
          <mxGeometry width="50" height="50" relative="1" as="geometry">
            <mxPoint x="80" y="600" as="sourcePoint" />
            <mxPoint x="149.9999999999999" y="509.5" as="targetPoint" />
          </mxGeometry>
        </mxCell>
        <mxCell id="Ee1ppWPycikmYeckys_f-33" value="" style="endArrow=none;html=1;rounded=0;strokeWidth=2;entryX=0;entryY=0.5;entryDx=0;entryDy=0;" parent="1" target="Ee1ppWPycikmYeckys_f-5" edge="1">
          <mxGeometry width="50" height="50" relative="1" as="geometry">
            <mxPoint x="80" y="420" as="sourcePoint" />
            <mxPoint x="149.9999999999999" y="420" as="targetPoint" />
          </mxGeometry>
        </mxCell>
        <mxCell id="Ee1ppWPycikmYeckys_f-34" value="" style="endArrow=none;html=1;rounded=0;strokeWidth=2;entryX=0;entryY=0.5;entryDx=0;entryDy=0;" parent="1" target="Ee1ppWPycikmYeckys_f-2" edge="1">
          <mxGeometry width="50" height="50" relative="1" as="geometry">
            <mxPoint x="80" y="330" as="sourcePoint" />
            <mxPoint x="149.9999999999999" y="329.5" as="targetPoint" />
          </mxGeometry>
        </mxCell>
        <mxCell id="Ee1ppWPycikmYeckys_f-35" value="" style="endArrow=none;html=1;rounded=0;strokeWidth=2;" parent="1" edge="1">
          <mxGeometry width="50" height="50" relative="1" as="geometry">
            <mxPoint x="80" y="600" as="sourcePoint" />
            <mxPoint x="80" y="240" as="targetPoint" />
          </mxGeometry>
        </mxCell>
        <mxCell id="Ee1ppWPycikmYeckys_f-36" value="" style="endArrow=none;html=1;rounded=0;strokeWidth=2;" parent="1" source="Ee1ppWPycikmYeckys_f-1" edge="1">
          <mxGeometry width="50" height="50" relative="1" as="geometry">
            <mxPoint x="390" y="450" as="sourcePoint" />
            <mxPoint x="80" y="380" as="targetPoint" />
          </mxGeometry>
        </mxCell>
        <mxCell id="WN3FTsc3brGf4hN8PLjJ-1" value="" style="endArrow=classic;html=1;rounded=0;entryX=1;entryY=0.5;entryDx=0;entryDy=0;strokeWidth=2;dashed=1;" edge="1" parent="1" target="Ee1ppWPycikmYeckys_f-2">
          <mxGeometry width="50" height="50" relative="1" as="geometry">
            <mxPoint x="360" y="330" as="sourcePoint" />
            <mxPoint x="430" y="260" as="targetPoint" />
          </mxGeometry>
        </mxCell>
        <mxCell id="WN3FTsc3brGf4hN8PLjJ-2" value="" style="endArrow=classic;html=1;rounded=0;entryX=1;entryY=0.5;entryDx=0;entryDy=0;strokeWidth=2;dashed=1;exitX=0;exitY=0.5;exitDx=0;exitDy=0;" edge="1" parent="1" source="Ee1ppWPycikmYeckys_f-19" target="Ee1ppWPycikmYeckys_f-5">
          <mxGeometry width="50" height="50" relative="1" as="geometry">
            <mxPoint x="380" y="420" as="sourcePoint" />
            <mxPoint x="310" y="440" as="targetPoint" />
          </mxGeometry>
        </mxCell>
        <mxCell id="WN3FTsc3brGf4hN8PLjJ-3" value="" style="endArrow=classic;html=1;rounded=0;entryX=1;entryY=0.5;entryDx=0;entryDy=0;strokeWidth=2;dashed=1;" edge="1" parent="1" target="Ee1ppWPycikmYeckys_f-4">
          <mxGeometry width="50" height="50" relative="1" as="geometry">
            <mxPoint x="360" y="600" as="sourcePoint" />
            <mxPoint x="330" y="430" as="targetPoint" />
          </mxGeometry>
        </mxCell>
        <mxCell id="WN3FTsc3brGf4hN8PLjJ-7" value="" style="endArrow=none;html=1;rounded=0;strokeWidth=2;" edge="1" parent="1">
          <mxGeometry width="50" height="50" relative="1" as="geometry">
            <mxPoint x="40" y="440" as="sourcePoint" />
            <mxPoint x="40" y="930" as="targetPoint" />
          </mxGeometry>
        </mxCell>
        <mxCell id="WN3FTsc3brGf4hN8PLjJ-9" value="&lt;span style=&quot;font-size: 20px;&quot;&gt;댓글조회&lt;/span&gt;" style="ellipse;whiteSpace=wrap;html=1;strokeWidth=2;" vertex="1" parent="1">
          <mxGeometry x="160" y="710" width="160" height="80" as="geometry" />
        </mxCell>
        <mxCell id="WN3FTsc3brGf4hN8PLjJ-11" value="&lt;span style=&quot;font-size: 20px;&quot;&gt;댓글삭제&lt;/span&gt;" style="ellipse;whiteSpace=wrap;html=1;strokeWidth=2;" vertex="1" parent="1">
          <mxGeometry x="160" y="800" width="160" height="80" as="geometry" />
        </mxCell>
        <mxCell id="WN3FTsc3brGf4hN8PLjJ-13" value="&lt;span style=&quot;font-size: 20px;&quot;&gt;댓글수정&lt;/span&gt;" style="ellipse;whiteSpace=wrap;html=1;strokeWidth=2;" vertex="1" parent="1">
          <mxGeometry x="160" y="890" width="160" height="80" as="geometry" />
        </mxCell>
        <mxCell id="WN3FTsc3brGf4hN8PLjJ-14" value="" style="endArrow=classic;html=1;rounded=0;strokeWidth=2;" edge="1" parent="1">
          <mxGeometry width="50" height="50" relative="1" as="geometry">
            <mxPoint x="40" y="930.5" as="sourcePoint" />
            <mxPoint x="160" y="930" as="targetPoint" />
          </mxGeometry>
        </mxCell>
        <mxCell id="WN3FTsc3brGf4hN8PLjJ-15" value="" style="endArrow=classic;html=1;rounded=0;strokeWidth=2;" edge="1" parent="1">
          <mxGeometry width="50" height="50" relative="1" as="geometry">
            <mxPoint x="40" y="840.5" as="sourcePoint" />
            <mxPoint x="160" y="840" as="targetPoint" />
          </mxGeometry>
        </mxCell>
        <mxCell id="WN3FTsc3brGf4hN8PLjJ-24" value="&lt;font style=&quot;font-size: 20px;&quot;&gt;없을 시 메세지&lt;/font&gt;" style="ellipse;whiteSpace=wrap;html=1;strokeWidth=2;" vertex="1" parent="1">
          <mxGeometry x="400" y="890" width="160" height="80" as="geometry" />
        </mxCell>
        <mxCell id="WN3FTsc3brGf4hN8PLjJ-25" value="" style="endArrow=classic;html=1;rounded=0;strokeWidth=2;dashed=1;entryX=1;entryY=0.5;entryDx=0;entryDy=0;" edge="1" parent="1">
          <mxGeometry width="50" height="50" relative="1" as="geometry">
            <mxPoint x="360" y="840" as="sourcePoint" />
            <mxPoint x="320" y="839.5" as="targetPoint" />
          </mxGeometry>
        </mxCell>
        <mxCell id="WN3FTsc3brGf4hN8PLjJ-26" value="" style="endArrow=classic;html=1;rounded=0;strokeWidth=2;dashed=1;entryX=1;entryY=0.5;entryDx=0;entryDy=0;exitX=0;exitY=0.5;exitDx=0;exitDy=0;" edge="1" parent="1" source="WN3FTsc3brGf4hN8PLjJ-24" target="WN3FTsc3brGf4hN8PLjJ-13">
          <mxGeometry width="50" height="50" relative="1" as="geometry">
            <mxPoint x="390" y="930" as="sourcePoint" />
            <mxPoint x="330" y="950" as="targetPoint" />
          </mxGeometry>
        </mxCell>
        <mxCell id="WN3FTsc3brGf4hN8PLjJ-29" value="&lt;font style=&quot;font-size: 20px;&quot;&gt;전체조회&lt;/font&gt;" style="ellipse;whiteSpace=wrap;html=1;strokeWidth=2;" vertex="1" parent="1">
          <mxGeometry x="160" y="470" width="160" height="80" as="geometry" />
        </mxCell>
        <mxCell id="WN3FTsc3brGf4hN8PLjJ-30" value="" style="endArrow=none;dashed=1;html=1;rounded=0;strokeWidth=2;" edge="1" parent="1">
          <mxGeometry width="50" height="50" relative="1" as="geometry">
            <mxPoint x="360" y="600" as="sourcePoint" />
            <mxPoint x="360" y="330" as="targetPoint" />
          </mxGeometry>
        </mxCell>
        <mxCell id="WN3FTsc3brGf4hN8PLjJ-31" value="" style="endArrow=classic;html=1;rounded=0;exitX=0.5;exitY=1;exitDx=0;exitDy=0;entryX=0.5;entryY=0;entryDx=0;entryDy=0;strokeWidth=2;dashed=1;" edge="1" parent="1" source="Ee1ppWPycikmYeckys_f-4" target="WN3FTsc3brGf4hN8PLjJ-9">
          <mxGeometry width="50" height="50" relative="1" as="geometry">
            <mxPoint x="480" y="610" as="sourcePoint" />
            <mxPoint x="530" y="560" as="targetPoint" />
          </mxGeometry>
        </mxCell>
        <mxCell id="WN3FTsc3brGf4hN8PLjJ-34" value="&lt;span style=&quot;font-size: 20px;&quot;&gt;작성자, 패스워드&lt;/span&gt;&lt;div&gt;&lt;span style=&quot;font-size: 20px;&quot;&gt;틀리면 메세지&lt;/span&gt;&lt;/div&gt;" style="ellipse;whiteSpace=wrap;html=1;strokeWidth=2;" vertex="1" parent="1">
          <mxGeometry x="400" y="800" width="160" height="80" as="geometry" />
        </mxCell>
        <mxCell id="WN3FTsc3brGf4hN8PLjJ-37" value="" style="endArrow=classic;html=1;rounded=0;entryX=0;entryY=0.5;entryDx=0;entryDy=0;strokeWidth=2;dashed=1;" edge="1" parent="1" target="WN3FTsc3brGf4hN8PLjJ-34">
          <mxGeometry width="50" height="50" relative="1" as="geometry">
            <mxPoint x="320" y="840" as="sourcePoint" />
            <mxPoint x="420" y="810" as="targetPoint" />
          </mxGeometry>
        </mxCell>
        <mxCell id="WN3FTsc3brGf4hN8PLjJ-38" value="" style="endArrow=none;dashed=1;html=1;rounded=0;strokeWidth=2;" edge="1" parent="1">
          <mxGeometry width="50" height="50" relative="1" as="geometry">
            <mxPoint x="360" y="930" as="sourcePoint" />
            <mxPoint x="360" y="840" as="targetPoint" />
          </mxGeometry>
        </mxCell>
        <mxCell id="WN3FTsc3brGf4hN8PLjJ-42" value="&lt;font style=&quot;font-size: 20px;&quot;&gt;Todo&lt;/font&gt;" style="text;html=1;align=center;verticalAlign=middle;whiteSpace=wrap;rounded=0;" vertex="1" parent="1">
          <mxGeometry x="520" y="160" width="60" height="30" as="geometry" />
        </mxCell>
        <mxCell id="WN3FTsc3brGf4hN8PLjJ-46" value="&lt;font style=&quot;font-size: 20px;&quot;&gt;Comment&lt;/font&gt;" style="text;html=1;align=center;verticalAlign=middle;whiteSpace=wrap;rounded=0;" vertex="1" parent="1">
          <mxGeometry x="500" y="690" width="60" height="30" as="geometry" />
        </mxCell>
      </root>
    </mxGraphModel>
  </diagram>
</mxfile>
